<?xml version="1.0" standalone="no"?>
<!DOCTYPE svg PUBLIC "-//W3C//DTD SVG 20010904//EN"
 "http://www.w3.org/TR/2001/REC-SVG-20010904/DTD/svg10.dtd">
<svg version="1.0" xmlns="http://www.w3.org/2000/svg"
 width="794.000000pt" height="826.000000pt" viewBox="0 0 794.000000 826.000000"
 preserveAspectRatio="xMidYMid meet">

<g transform="translate(0.000000,826.000000) scale(0.100000,-0.100000)"
fill="#070707" stroke="none">
<path d="M5 4130 c0 -2274 1 -3205 2 -2067 2 1137 2 2997 0 4135 -1 1137 -2
206 -2 -2068z"/>
<path d="M3696 7944 c-820 -105 -1555 -640 -1953 -1421 -195 -381 -294 -758
-319 -1212 l-7 -124 108 6 c60 4 143 7 185 7 l77 0 7 113 c33 555 216 1042
541 1442 495 609 1252 907 1983 780 739 -128 1356 -684 1602 -1441 169 -523
158 -1063 -31 -1590 l-29 -81 345 -598 c190 -329 345 -601 345 -605 0 -6 -508
-291 -630 -353 l-55 -28 -96 -487 -96 -487 -39 -6 c-21 -4 -200 -10 -396 -14
-197 -4 -358 -11 -358 -16 0 -5 -20 -9 -45 -9 l-45 0 0 -540 0 -540 -500 0
-500 0 0 1134 0 1135 60 27 c71 32 160 120 192 191 19 40 22 66 23 158 0 107
-1 112 -34 173 -164 302 -591 266 -701 -58 -27 -80 -24 -176 10 -265 30 -79
126 -176 199 -202 l51 -18 0 -1137 0 -1138 -275 0 -275 0 0 2075 c0 1141 0
2078 -1 2082 0 4 23 15 52 26 74 28 169 125 198 202 60 159 26 310 -93 423
-84 80 -129 96 -261 97 -107 0 -112 -1 -173 -34 -71 -39 -139 -109 -170 -174
-98 -209 9 -456 231 -530 16 -6 17 -112 15 -2084 l-3 -2078 -277 -3 -278 -2
-2 477 -3 478 -280 680 -280 680 -3 545 -3 545 50 18 c66 23 162 112 196 180
97 200 18 425 -183 520 -60 28 -77 32 -157 32 -80 0 -97 -4 -157 -32 -201 -95
-280 -320 -183 -520 34 -68 130 -157 195 -180 l50 -18 0 -568 c-1 -367 3 -573
9 -581 6 -7 132 -313 281 -681 l270 -668 0 -643 0 -643 1433 -3 c787 -2 1485
-2 1550 0 l117 3 0 544 0 543 28 6 c15 3 185 8 377 11 193 4 364 11 380 16
l30 9 99 508 c55 279 103 525 108 547 l9 40 422 233 c232 128 428 236 436 241
15 9 -41 121 -165 331 -34 58 -188 325 -344 594 -219 381 -281 495 -277 515 2
14 18 78 35 141 108 410 120 897 31 1310 -221 1020 -974 1790 -1928 1970 -58
11 -146 24 -196 30 -125 14 -398 11 -529 -6z m-693 -2525 c105 -54 127 -179
47 -259 -65 -65 -151 -66 -221 -3 -82 74 -70 196 25 254 35 21 114 26 149 8z
m-1317 -760 c100 -48 121 -180 42 -256 -69 -65 -158 -65 -226 0 -79 76 -58
207 41 256 53 26 89 26 143 0z m2089 -1138 c47 -27 75 -76 75 -133 0 -27 -5
-59 -11 -71 -54 -105 -179 -127 -259 -47 -65 65 -66 151 -3 221 55 60 127 71
198 30z"/>
<path d="M4070 7161 c0 -4 -83 -410 -185 -902 -102 -491 -185 -895 -185 -896
0 -2 40 -3 88 -3 l88 0 184 888 c101 488 185 895 188 905 4 15 -5 17 -87 17
-50 0 -91 -4 -91 -9z"/>
<path d="M3103 6637 l-463 -252 0 -130 0 -131 403 -219 c221 -121 430 -235
465 -253 l62 -33 0 144 0 144 -336 173 c-184 95 -334 173 -332 175 2 1 153 80
336 175 l332 172 0 144 c0 79 -1 144 -2 144 -2 0 -211 -114 -465 -253z"/>
<path d="M4380 6746 l0 -144 333 -172 c182 -95 333 -174 335 -175 2 -2 -148
-80 -332 -175 l-336 -173 0 -144 0 -144 63 33 c34 18 243 132 465 253 l402
219 0 127 c0 89 -4 130 -12 137 -11 8 -799 441 -890 488 l-28 15 0 -145z"/>
</g>
</svg>
